<svg width="180" height="180" viewBox="0 0 180 180" fill="none" xmlns="http://www.w3.org/2000/svg">
<g clip-path="url(#clip0_1141_1302)">
<rect width="180" height="180" rx="40" fill="white"/>
<path d="M54 124C53.5654 124 53.0997 123.938 52.6029 123.815C52.1683 123.691 51.7026 123.505 51.2059 123.258L34.1618 115.191L17.6765 107.309C16.5588 106.815 16 105.578 16 103.6V45.8309C16 44.3473 16.4967 43.1109 17.4902 42.1218L36.1176 23.5764C37.1732 22.5255 38.415 22 39.8431 22H68.1569C69.585 22 70.8268 22.5255 71.8823 23.5764L90.5098 42.1218C91.5033 43.1109 92 44.3473 92 45.8309V83.8491H51.3922V87.3727L59.1225 90.8036L77.0049 95.9036C77.6879 95.9655 78.0294 96.9236 78.0294 98.7782V121.682C78.0294 123.227 77.2533 124 75.701 124H54ZM55.2108 66.2309H55.3971C57.7565 66.2309 59.5261 65.5509 60.7059 64.1909C61.9477 62.8309 62.5686 60.8218 62.5686 58.1636V57.8854C62.5686 55.2273 61.9477 53.2182 60.7059 51.8582C59.5261 50.4982 57.7565 49.8182 55.3971 49.8182H55.1176C52.9444 49.8182 51.2369 50.4982 49.9951 51.8582C48.8154 53.2182 48.2255 55.2273 48.2255 57.8854V58.1636C48.2255 60.8218 48.8154 62.8309 49.9951 64.1909C51.1748 65.5509 52.9134 66.2309 55.2108 66.2309Z" fill="#9A97DA"/>
<path d="M126 58C126.435 58 126.9 58.0618 127.397 58.1855C127.832 58.3091 128.297 58.4946 128.794 58.7418L145.838 66.8091L162.324 74.6909C163.441 75.1855 164 76.4218 164 78.4L164 136.169C164 137.653 163.503 138.889 162.51 139.878L143.882 158.424C142.827 159.475 141.585 160 140.157 160L111.843 160C110.415 160 109.173 159.475 108.118 158.424L89.4902 139.878C88.4967 138.889 88 137.653 88 136.169L88 98.1509L128.608 98.1509L128.608 94.6273L120.877 91.1964L102.995 86.0964C102.312 86.0345 101.971 85.0764 101.971 83.2218L101.971 60.3182C101.971 58.7727 102.747 58 104.299 58L126 58ZM124.789 115.769L124.603 115.769C122.243 115.769 120.474 116.449 119.294 117.809C118.052 119.169 117.431 121.178 117.431 123.836L117.431 124.115C117.431 126.773 118.052 128.782 119.294 130.142C120.474 131.502 122.243 132.182 124.603 132.182L124.882 132.182C127.056 132.182 128.763 131.502 130.005 130.142C131.185 128.782 131.775 126.773 131.775 124.115L131.775 123.836C131.775 121.178 131.185 119.169 130.005 117.809C128.825 116.449 127.087 115.769 124.789 115.769Z" fill="#9A97DA"/>
</g>
<defs>
<clipPath id="clip0_1141_1302">
<rect width="180" height="180" fill="white"/>
</clipPath>
</defs>
</svg>
